<?xml version="1.0" encoding="UTF-8"?>
<svg xmlns="http://www.w3.org/2000/svg" xmlns:xlink="http://www.w3.org/1999/xlink" width="612pt" height="792pt" viewBox="0 0 612 792" version="1.1">
<g id="surface1">
<path style=" stroke:none;fill-rule:evenodd;fill:rgb(11.767578%,11.767578%,11.767578%);fill-opacity:1;" d="M 221.265625 375.835938 C 222.476563 375.390625 223.769531 375.1875 225.058594 375.140625 C 226.230469 375.101563 227.40625 375.21875 228.539063 375.527344 C 229.351563 375.746094 230.144531 376.070313 230.84375 376.542969 C 231.742188 377.148438 232.480469 378.023438 232.84375 379.054688 C 233.257813 380.214844 233.28125 381.46875 233.28125 382.6875 C 233.277344 384.851563 233.28125 387.019531 233.277344 389.1875 C 233.285156 389.75 233.253906 390.316406 233.351563 390.878906 C 233.4375 391.398438 233.625 391.898438 233.894531 392.351563 C 234.148438 392.78125 234.457031 393.171875 234.753906 393.570313 C 234.914063 393.785156 235.035156 394.058594 234.972656 394.332031 C 234.9375 394.492188 234.8125 394.609375 234.691406 394.710938 C 233.789063 395.457031 232.910156 396.226563 232.023438 396.988281 C 231.824219 397.15625 231.628906 397.351563 231.371094 397.417969 C 231.148438 397.46875 230.894531 397.4375 230.71875 397.289063 C 230.246094 396.898438 229.789063 396.484375 229.40625 396.003906 C 229.078125 395.59375 228.796875 395.152344 228.492188 394.722656 C 227.582031 395.628906 226.589844 396.5 225.386719 397.003906 C 224.367188 397.4375 223.246094 397.566406 222.148438 397.574219 C 220.703125 397.613281 219.199219 397.257813 218.058594 396.339844 C 217.011719 395.519531 216.367188 394.277344 216.136719 392.984375 C 215.847656 391.355469 215.996094 389.605469 216.773438 388.128906 C 217.414063 386.882813 218.492188 385.894531 219.738281 385.269531 C 220.753906 384.757813 221.859375 384.464844 222.976563 384.257813 C 224.539063 383.972656 226.128906 383.847656 227.707031 383.679688 C 227.699219 382.984375 227.738281 382.285156 227.660156 381.589844 C 227.59375 381.035156 227.40625 380.46875 227.011719 380.058594 C 226.53125 379.5625 225.832031 379.339844 225.15625 379.308594 C 224.285156 379.265625 223.371094 379.496094 222.703125 380.074219 C 222.230469 380.480469 221.925781 381.054688 221.800781 381.660156 C 221.726563 382.015625 221.449219 382.398438 221.050781 382.375 C 219.804688 382.242188 218.558594 382.105469 217.3125 381.96875 C 216.953125 381.933594 216.597656 381.621094 216.65625 381.234375 C 216.828125 380.234375 217.199219 379.265625 217.777344 378.429688 C 218.613281 377.207031 219.886719 376.339844 221.265625 375.835938 Z M 224.800781 387.128906 C 224.101563 387.3125 223.410156 387.601563 222.867188 388.089844 C 222.300781 388.589844 221.957031 389.304688 221.851563 390.046875 C 221.742188 390.824219 221.785156 391.65625 222.136719 392.371094 C 222.394531 392.902344 222.863281 393.335938 223.433594 393.507813 C 224.230469 393.757813 225.128906 393.585938 225.808594 393.117188 C 226.648438 392.542969 227.183594 391.613281 227.460938 390.652344 C 227.800781 389.40625 227.683594 388.101563 227.707031 386.824219 C 226.730469 386.828125 225.75 386.890625 224.800781 387.128906 "/>
<path style=" stroke:none;fill-rule:evenodd;fill:rgb(11.767578%,11.767578%,11.767578%);fill-opacity:1;" d="M 275.3125 375.3125 C 277.25 375.003906 279.277344 375.070313 281.144531 375.703125 C 282.085938 376.023438 282.988281 376.507813 283.695313 377.214844 C 284.316406 377.820313 284.765625 378.597656 284.996094 379.433594 C 285.300781 380.507813 285.3125 381.632813 285.316406 382.738281 C 285.308594 384.851563 285.3125 386.964844 285.3125 389.078125 C 285.316406 389.824219 285.269531 390.589844 285.480469 391.3125 C 285.695313 392.140625 286.226563 392.828125 286.734375 393.496094 C 286.914063 393.730469 287.070313 394.023438 287.003906 394.328125 C 286.953125 394.558594 286.738281 394.691406 286.574219 394.835938 C 285.679688 395.589844 284.789063 396.347656 283.910156 397.117188 C 283.699219 397.300781 283.441406 397.472656 283.148438 397.4375 C 282.773438 397.425781 282.539063 397.089844 282.269531 396.878906 C 281.5625 396.269531 281.042969 395.488281 280.527344 394.722656 C 279.773438 395.46875 278.976563 396.1875 278.039063 396.699219 C 277.1875 397.179688 276.222656 397.433594 275.253906 397.519531 C 274.253906 397.605469 273.230469 397.621094 272.253906 397.378906 C 271.277344 397.144531 270.347656 396.660156 269.644531 395.941406 C 268.683594 394.976563 268.1875 393.632813 268.070313 392.296875 C 267.960938 391.132813 268.066406 389.9375 268.484375 388.84375 C 268.972656 387.515625 269.9375 386.382813 271.132813 385.632813 C 272.25 384.921875 273.539063 384.539063 274.832031 384.292969 C 276.453125 383.980469 278.101563 383.855469 279.738281 383.675781 C 279.726563 382.933594 279.78125 382.183594 279.671875 381.441406 C 279.585938 380.863281 279.339844 380.277344 278.875 379.902344 C 278.289063 379.421875 277.503906 379.261719 276.761719 379.308594 C 275.953125 379.355469 275.136719 379.648438 274.566406 380.234375 C 274.179688 380.628906 273.9375 381.148438 273.824219 381.683594 C 273.75 382.03125 273.464844 382.410156 273.070313 382.371094 C 271.839844 382.242188 270.605469 382.105469 269.371094 381.972656 C 269.003906 381.945313 268.628906 381.628906 268.6875 381.234375 C 268.941406 379.703125 269.699219 378.238281 270.890625 377.226563 C 272.128906 376.15625 273.714844 375.574219 275.3125 375.3125 Z M 276.390625 387.261719 C 275.628906 387.515625 274.894531 387.949219 274.429688 388.621094 C 273.878906 389.414063 273.753906 390.433594 273.867188 391.371094 C 273.964844 392.125 274.324219 392.890625 274.992188 393.292969 C 275.855469 393.804688 276.992188 393.691406 277.808594 393.140625 C 278.714844 392.53125 279.28125 391.519531 279.539063 390.476563 C 279.820313 389.28125 279.71875 388.042969 279.738281 386.824219 C 278.613281 386.835938 277.46875 386.902344 276.390625 387.261719 "/>
<path style=" stroke:none;fill-rule:evenodd;fill:rgb(11.767578%,11.767578%,11.767578%);fill-opacity:1;" d="M 246.984375 375.472656 C 247.871094 375.289063 248.800781 375.28125 249.695313 375.460938 C 250.605469 375.648438 251.457031 376.121094 252.09375 376.800781 C 252.710938 377.449219 253.15625 378.238281 253.519531 379.050781 C 253.78125 378.386719 254.136719 377.757813 254.613281 377.222656 C 255.292969 376.441406 256.207031 375.871094 257.199219 375.589844 C 259.097656 375.027344 261.296875 375.378906 262.824219 376.675781 C 263.511719 377.257813 264.046875 378.03125 264.296875 378.898438 C 264.695313 380.210938 264.644531 381.59375 264.628906 382.945313 C 264.609375 385.027344 264.625 387.105469 264.617188 389.1875 C 264.617188 391.628906 264.621094 394.070313 264.617188 396.511719 C 264.632813 396.914063 264.265625 397.253906 263.871094 397.25 C 262.644531 397.257813 261.414063 397.25 260.1875 397.253906 C 259.957031 397.257813 259.710938 397.265625 259.507813 397.132813 C 259.273438 396.996094 259.144531 396.726563 259.160156 396.460938 C 259.167969 392.285156 259.148438 388.113281 259.175781 383.9375 C 259.167969 383.382813 259.160156 382.828125 259.085938 382.28125 C 258.996094 381.742188 258.785156 381.1875 258.347656 380.835938 C 257.90625 380.472656 257.3125 380.371094 256.753906 380.367188 C 255.863281 380.355469 255.007813 380.863281 254.542969 381.617188 C 254.28125 382.035156 254.164063 382.523438 254.089844 383.007813 C 253.945313 384.003906 253.96875 385.011719 253.964844 386.011719 C 253.964844 389.511719 253.96875 393.011719 253.96875 396.507813 C 253.976563 396.769531 253.824219 397.023438 253.597656 397.144531 C 253.371094 397.277344 253.105469 397.25 252.855469 397.253906 C 251.679688 397.253906 250.5 397.253906 249.324219 397.253906 C 249.039063 397.265625 248.746094 397.125 248.601563 396.871094 C 248.492188 396.6875 248.511719 396.460938 248.511719 396.253906 C 248.511719 392.769531 248.507813 389.289063 248.511719 385.804688 C 248.511719 384.636719 248.597656 383.449219 248.351563 382.296875 C 248.222656 381.714844 247.96875 381.117188 247.480469 380.746094 C 246.914063 380.320313 246.15625 380.265625 245.484375 380.375 C 244.847656 380.476563 244.277344 380.871094 243.957031 381.429688 C 243.488281 382.234375 243.394531 383.183594 243.339844 384.09375 C 243.292969 385.269531 243.324219 386.449219 243.316406 387.628906 C 243.316406 390.589844 243.316406 393.550781 243.316406 396.515625 C 243.328125 396.917969 242.953125 397.253906 242.5625 397.25 C 241.246094 397.257813 239.933594 397.253906 238.621094 397.253906 C 238.21875 397.273438 237.84375 396.921875 237.859375 396.511719 C 237.859375 389.84375 237.859375 383.171875 237.859375 376.503906 C 237.839844 376.09375 238.21875 375.75 238.617188 375.757813 C 239.847656 375.753906 241.078125 375.753906 242.308594 375.757813 C 242.6875 375.753906 243.050781 376.066406 243.054688 376.453125 C 243.0625 377.316406 243.046875 378.179688 243.058594 379.039063 C 243.074219 379.039063 243.105469 379.042969 243.121094 379.046875 C 243.40625 378.351563 243.753906 377.671875 244.246094 377.097656 C 244.941406 376.269531 245.921875 375.691406 246.984375 375.472656 "/>
<path style=" stroke:none;fill-rule:evenodd;fill:rgb(11.767578%,11.767578%,11.767578%);fill-opacity:1;" d="M 338.984375 375.796875 C 339.917969 375.375 340.964844 375.28125 341.976563 375.351563 C 343.136719 375.433594 344.296875 375.851563 345.164063 376.644531 C 345.78125 377.203125 346.269531 377.910156 346.539063 378.703125 C 347.035156 380.164063 347.078125 381.730469 347.097656 383.261719 C 347.105469 387.675781 347.097656 392.09375 347.101563 396.511719 C 347.121094 396.84375 346.867188 397.144531 346.550781 397.222656 C 346.347656 397.269531 346.132813 397.25 345.925781 397.253906 C 344.753906 397.253906 343.578125 397.253906 342.402344 397.253906 C 342.023438 397.261719 341.644531 396.957031 341.644531 396.566406 C 341.644531 393.03125 341.644531 389.496094 341.644531 385.960938 C 341.640625 385.078125 341.675781 384.199219 341.609375 383.316406 C 341.546875 382.613281 341.4375 381.882813 341.066406 381.265625 C 340.8125 380.835938 340.390625 380.507813 339.910156 380.378906 C 339.394531 380.242188 338.828125 380.242188 338.328125 380.441406 C 337.6875 380.695313 337.171875 381.222656 336.878906 381.839844 C 336.429688 382.785156 336.277344 383.835938 336.242188 384.871094 C 336.214844 385.738281 336.230469 386.605469 336.226563 387.472656 C 336.226563 390.363281 336.226563 393.257813 336.226563 396.148438 C 336.21875 396.359375 336.253906 396.578125 336.171875 396.777344 C 336.058594 397.074219 335.742188 397.257813 335.429688 397.253906 C 334.132813 397.253906 332.835938 397.253906 331.535156 397.253906 C 331.136719 397.265625 330.753906 396.925781 330.769531 396.515625 C 330.769531 389.84375 330.769531 383.175781 330.765625 376.503906 C 330.753906 376.246094 330.898438 375.996094 331.117188 375.871094 C 331.273438 375.773438 331.460938 375.753906 331.640625 375.757813 C 332.816406 375.757813 333.996094 375.753906 335.175781 375.757813 C 335.449219 375.753906 335.726563 375.894531 335.855469 376.140625 C 335.949219 376.296875 335.914063 376.484375 335.921875 376.660156 C 335.925781 377.578125 335.914063 378.496094 335.925781 379.414063 C 335.972656 379.390625 336.023438 379.363281 336.039063 379.308594 C 336.34375 378.574219 336.710938 377.859375 337.199219 377.230469 C 337.671875 376.625 338.277344 376.113281 338.984375 375.796875 "/>
<path style=" stroke:none;fill-rule:evenodd;fill:rgb(11.767578%,11.767578%,11.767578%);fill-opacity:1;" d="M 290.085938 376.445313 C 290.078125 376.074219 290.414063 375.738281 290.789063 375.746094 C 295.121094 375.742188 299.453125 375.746094 303.789063 375.746094 C 304.0625 375.734375 304.355469 375.867188 304.484375 376.121094 C 304.589844 376.300781 304.574219 376.511719 304.574219 376.710938 C 304.574219 377.421875 304.574219 378.132813 304.574219 378.84375 C 304.585938 379.328125 304.28125 379.742188 304.03125 380.132813 C 301.640625 383.519531 299.246094 386.90625 296.855469 390.292969 C 299.207031 390.242188 301.617188 390.566406 303.75 391.601563 C 304.101563 391.785156 304.503906 391.941406 304.734375 392.285156 C 304.933594 392.578125 304.980469 392.941406 304.96875 393.289063 C 304.964844 394.210938 304.96875 395.128906 304.964844 396.050781 C 304.96875 396.410156 304.679688 396.777344 304.304688 396.796875 C 304.074219 396.796875 303.882813 396.648438 303.683594 396.5625 C 299.597656 394.589844 294.597656 394.574219 290.535156 396.617188 C 290.339844 396.710938 290.140625 396.859375 289.914063 396.804688 C 289.578125 396.726563 289.332031 396.390625 289.339844 396.046875 C 289.339844 395.179688 289.339844 394.3125 289.339844 393.445313 C 289.316406 392.648438 289.382813 391.789063 289.871094 391.121094 C 292.457031 387.441406 295.042969 383.761719 297.628906 380.078125 C 295.367188 380.074219 293.105469 380.078125 290.84375 380.074219 C 290.589844 380.078125 290.335938 379.964844 290.199219 379.746094 C 290.101563 379.605469 290.078125 379.429688 290.082031 379.257813 C 290.085938 378.320313 290.078125 377.382813 290.085938 376.445313 "/>
<path style=" stroke:none;fill-rule:evenodd;fill:rgb(11.767578%,11.767578%,11.767578%);fill-opacity:1;" d="M 296.433594 398.269531 C 297.710938 398.210938 299 398.265625 300.253906 398.53125 C 300.726563 398.640625 301.214844 398.761719 301.628906 399.027344 C 301.839844 399.160156 301.933594 399.402344 301.980469 399.636719 C 302.09375 400.199219 302.0625 400.78125 302.007813 401.347656 C 301.808594 403.183594 301.261719 404.976563 300.449219 406.632813 C 299.75 408.046875 298.820313 409.371094 297.601563 410.390625 C 297.382813 410.574219 297.074219 410.75 296.785156 410.628906 C 296.558594 410.519531 296.558594 410.222656 296.644531 410.019531 C 297.394531 408.132813 298.164063 406.234375 298.632813 404.253906 C 298.78125 403.570313 298.925781 402.867188 298.839844 402.167969 C 298.800781 401.847656 298.65625 401.523438 298.367188 401.355469 C 297.855469 401.050781 297.242188 400.976563 296.660156 400.914063 C 294.386719 400.746094 292.117188 401.039063 289.859375 401.289063 C 289.652344 401.308594 289.371094 401.246094 289.3125 401.015625 C 289.253906 400.730469 289.46875 400.488281 289.679688 400.328125 C 290.503906 399.746094 291.429688 399.3125 292.390625 398.992188 C 293.695313 398.5625 295.0625 398.335938 296.433594 398.269531 "/>
<path style=" stroke:none;fill-rule:evenodd;fill:rgb(11.767578%,11.767578%,11.767578%);fill-opacity:1;" d="M 234.324219 399.601563 C 234.578125 399.484375 234.875 399.570313 235.105469 399.707031 C 242.324219 403.855469 250.347656 406.550781 258.574219 407.792969 C 264.070313 408.613281 269.671875 408.796875 275.203125 408.226563 C 281.613281 407.566406 287.9375 406.007813 293.90625 403.566406 C 294.277344 403.425781 294.644531 403.203125 295.054688 403.21875 C 295.492188 403.222656 295.941406 403.496094 296.058594 403.929688 C 296.167969 404.304688 295.976563 404.699219 295.691406 404.945313 C 295.4375 405.164063 295.152344 405.339844 294.882813 405.539063 C 291.40625 407.941406 287.515625 409.699219 283.496094 410.976563 C 279.027344 412.386719 274.375 413.214844 269.695313 413.394531 C 263.375 413.609375 257.011719 412.671875 251.046875 410.574219 C 245 408.460938 239.375 405.160156 234.578125 400.917969 C 234.367188 400.726563 234.101563 400.550781 234.03125 400.253906 C 233.957031 400.003906 234.074219 399.707031 234.324219 399.601563 "/>
<path style=" stroke:none;fill-rule:evenodd;fill:rgb(11.767578%,11.767578%,11.767578%);fill-opacity:1;" d="M 325.0625 400.808594 C 325.546875 400.730469 326.097656 400.773438 326.492188 401.089844 C 327.050781 401.515625 327.050781 402.476563 326.5 402.90625 C 326.148438 403.1875 325.679688 403.253906 325.242188 403.214844 C 324.875 403.183594 324.503906 403.035156 324.261719 402.746094 C 323.996094 402.425781 323.957031 401.960938 324.082031 401.574219 C 324.226563 401.152344 324.640625 400.882813 325.0625 400.808594 "/>
<path style=" stroke:none;fill-rule:evenodd;fill:rgb(11.767578%,11.767578%,11.767578%);fill-opacity:1;" d="M 364.144531 400.75 C 365.132813 400.75 366.121094 400.75 367.105469 400.75 C 367.109375 401.582031 367.109375 402.414063 367.109375 403.25 C 366.121094 403.25 365.132813 403.253906 364.144531 403.25 C 364.144531 402.414063 364.144531 401.582031 364.144531 400.75 "/>
<path style=" stroke:none;fill-rule:evenodd;fill:rgb(11.767578%,11.767578%,11.767578%);fill-opacity:1;" d="M 374.390625 401.242188 C 374.386719 400.984375 374.617188 400.757813 374.875 400.761719 C 375.414063 400.757813 375.949219 400.753906 376.488281 400.765625 C 376.757813 400.765625 376.976563 401.027344 376.953125 401.292969 C 376.953125 405.121094 376.953125 408.953125 376.953125 412.78125 C 376.976563 413.027344 376.792969 413.28125 376.539063 413.308594 C 376.230469 413.335938 375.914063 413.3125 375.605469 413.320313 C 375.34375 413.320313 375.050781 413.355469 374.835938 413.183594 C 374.625 413.042969 374.570313 412.785156 374.511719 412.558594 C 373.855469 413.136719 373 413.480469 372.121094 413.5 C 371.210938 413.550781 370.265625 413.28125 369.578125 412.667969 C 368.800781 411.980469 368.394531 410.957031 368.265625 409.945313 C 368.152344 408.996094 368.191406 408.015625 368.476563 407.101563 C 368.761719 406.179688 369.355469 405.324219 370.203125 404.835938 C 370.964844 404.394531 371.886719 404.316406 372.742188 404.457031 C 373.339844 404.550781 373.90625 404.800781 374.390625 405.152344 C 374.390625 403.851563 374.386719 402.546875 374.390625 401.242188 Z M 371.304688 406.875 C 370.972656 407.332031 370.867188 407.910156 370.824219 408.464844 C 370.789063 409.054688 370.800781 409.652344 370.949219 410.226563 C 371.054688 410.617188 371.238281 411.003906 371.558594 411.261719 C 371.859375 411.511719 372.253906 411.621094 372.640625 411.636719 C 373.257813 411.667969 373.875 411.488281 374.394531 411.160156 C 374.386719 409.667969 374.394531 408.175781 374.390625 406.683594 C 373.78125 406.347656 373.070313 406.214844 372.382813 406.277344 C 371.960938 406.316406 371.554688 406.527344 371.304688 406.875 "/>
<path style=" stroke:none;fill-rule:evenodd;fill:rgb(11.767578%,11.767578%,11.767578%);fill-opacity:1;" d="M 309.527344 405.453125 C 310.324219 404.714844 311.429688 404.324219 312.515625 404.386719 C 313.269531 404.414063 314.023438 404.6875 314.582031 405.203125 C 315.328125 405.878906 315.730469 406.863281 315.859375 407.847656 C 315.992188 408.890625 315.941406 409.96875 315.59375 410.964844 C 315.300781 411.824219 314.75 412.613281 313.960938 413.078125 C 313.292969 413.488281 312.484375 413.617188 311.714844 413.515625 C 311.007813 413.433594 310.316406 413.171875 309.773438 412.714844 C 309.773438 413.929688 309.773438 415.148438 309.769531 416.363281 C 309.785156 416.628906 309.5625 416.871094 309.296875 416.875 C 308.773438 416.878906 308.253906 416.878906 307.730469 416.875 C 307.460938 416.878906 307.226563 416.628906 307.242188 416.359375 C 307.238281 412.636719 307.242188 408.914063 307.242188 405.191406 C 307.214844 404.9375 307.394531 404.679688 307.652344 404.644531 C 307.921875 404.621094 308.191406 404.640625 308.464844 404.636719 C 308.710938 404.640625 308.988281 404.601563 309.195313 404.765625 C 309.425781 404.917969 309.46875 405.203125 309.527344 405.453125 Z M 309.75 406.703125 C 309.75 408.222656 309.746094 409.738281 309.75 411.253906 C 310.402344 411.636719 311.1875 411.804688 311.9375 411.671875 C 312.351563 411.597656 312.738281 411.351563 312.960938 410.988281 C 313.253906 410.515625 313.335938 409.945313 313.371094 409.398438 C 313.394531 408.84375 313.382813 408.277344 313.261719 407.730469 C 313.171875 407.335938 313.015625 406.933594 312.710938 406.652344 C 312.433594 406.398438 312.058594 406.277344 311.6875 406.25 C 311.015625 406.195313 310.332031 406.367188 309.75 406.703125 "/>
<path style=" stroke:none;fill-rule:evenodd;fill:rgb(11.767578%,11.767578%,11.767578%);fill-opacity:1;" d="M 332.890625 404.464844 C 333.570313 404.34375 334.296875 404.324219 334.949219 404.578125 C 335.378906 404.746094 335.730469 405.066406 335.96875 405.460938 C 336.71875 404.972656 337.546875 404.558594 338.441406 404.433594 C 339.269531 404.316406 340.203125 404.34375 340.890625 404.878906 C 341.480469 405.328125 341.730469 406.085938 341.730469 406.804688 C 341.734375 408.796875 341.734375 410.785156 341.730469 412.777344 C 341.742188 413.035156 341.515625 413.273438 341.253906 413.273438 C 340.75 413.277344 340.242188 413.277344 339.738281 413.273438 C 339.503906 413.285156 339.273438 413.109375 339.238281 412.875 C 339.21875 412.703125 339.230469 412.53125 339.226563 412.363281 C 339.226563 410.71875 339.226563 409.070313 339.226563 407.425781 C 339.226563 407.140625 339.183594 406.835938 339.003906 406.605469 C 338.835938 406.386719 338.558594 406.289063 338.289063 406.277344 C 337.605469 406.25 336.929688 406.429688 336.308594 406.710938 C 336.304688 408.734375 336.3125 410.757813 336.304688 412.78125 C 336.3125 413.050781 336.070313 413.289063 335.800781 413.273438 C 335.296875 413.277344 334.796875 413.277344 334.292969 413.273438 C 334.027344 413.28125 333.789063 413.039063 333.804688 412.773438 C 333.800781 410.992188 333.804688 409.207031 333.800781 407.425781 C 333.800781 407.132813 333.753906 406.824219 333.566406 406.59375 C 333.390625 406.375 333.101563 406.28125 332.832031 406.277344 C 332.152344 406.261719 331.476563 406.429688 330.867188 406.726563 C 330.859375 408.742188 330.871094 410.757813 330.863281 412.777344 C 330.871094 413.03125 330.652344 413.269531 330.394531 413.273438 C 329.871094 413.277344 329.351563 413.277344 328.828125 413.273438 C 328.570313 413.269531 328.347656 413.035156 328.359375 412.777344 C 328.355469 410.230469 328.355469 407.683594 328.359375 405.136719 C 328.347656 404.878906 328.570313 404.632813 328.832031 404.636719 C 329.179688 404.628906 329.527344 404.632813 329.875 404.632813 C 330.140625 404.617188 330.398438 404.777344 330.511719 405.015625 C 330.566406 405.160156 330.601563 405.3125 330.644531 405.460938 C 331.335938 405.015625 332.078125 404.617188 332.890625 404.464844 "/>
<path style=" stroke:none;fill-rule:evenodd;fill:rgb(11.767578%,11.767578%,11.767578%);fill-opacity:1;" d="M 344.484375 405.359375 C 345.15625 404.773438 346.039063 404.480469 346.914063 404.414063 C 347.730469 404.355469 348.578125 404.40625 349.328125 404.75 C 349.957031 405.035156 350.476563 405.550781 350.753906 406.183594 C 351.09375 406.925781 351.128906 407.769531 351.054688 408.574219 C 351.039063 408.75 351.027344 408.929688 350.988281 409.101563 C 350.921875 409.363281 350.671875 409.558594 350.402344 409.550781 C 348.753906 409.554688 347.105469 409.550781 345.453125 409.554688 C 345.492188 410.070313 345.621094 410.617188 345.988281 411.003906 C 346.371094 411.414063 346.945313 411.566406 347.484375 411.628906 C 348.480469 411.75 349.472656 411.515625 350.445313 411.339844 C 350.648438 411.296875 350.863281 411.445313 350.886719 411.65625 C 350.90625 411.890625 350.894531 412.128906 350.894531 412.363281 C 350.898438 412.664063 350.695313 412.949219 350.421875 413.058594 C 349.753906 413.324219 349.039063 413.441406 348.324219 413.496094 C 347.523438 413.550781 346.707031 413.519531 345.933594 413.304688 C 345.207031 413.105469 344.523438 412.707031 344.039063 412.125 C 343.484375 411.464844 343.210938 410.609375 343.121094 409.757813 C 343.042969 408.960938 343.066406 408.140625 343.269531 407.363281 C 343.464844 406.59375 343.878906 405.875 344.484375 405.359375 Z M 345.972656 406.632813 C 345.617188 407.007813 345.476563 407.53125 345.4375 408.035156 C 346.589844 408.03125 347.738281 408.035156 348.890625 408.035156 C 348.894531 407.589844 348.890625 407.117188 348.660156 406.71875 C 348.480469 406.386719 348.121094 406.179688 347.753906 406.125 C 347.128906 406.03125 346.414063 406.152344 345.972656 406.632813 "/>
<path style=" stroke:none;fill-rule:evenodd;fill:rgb(11.767578%,11.767578%,11.767578%);fill-opacity:1;" d="M 380.957031 404.621094 C 381.8125 404.359375 382.734375 404.328125 383.609375 404.484375 C 384.480469 404.636719 385.304688 405.132813 385.746094 405.914063 C 386.285156 406.851563 386.277344 407.988281 386.132813 409.035156 C 386.089844 409.320313 385.824219 409.558594 385.53125 409.550781 C 383.882813 409.554688 382.234375 409.550781 380.585938 409.554688 C 380.621094 410.070313 380.75 410.617188 381.117188 411.007813 C 381.484375 411.398438 382.027344 411.550781 382.542969 411.621094 C 383.5625 411.761719 384.578125 411.519531 385.578125 411.339844 C 385.78125 411.296875 385.992188 411.449219 386.015625 411.65625 C 386.035156 411.890625 386.023438 412.128906 386.023438 412.367188 C 386.023438 412.664063 385.824219 412.949219 385.546875 413.058594 C 385.011719 413.273438 384.441406 413.390625 383.871094 413.457031 C 382.847656 413.566406 381.785156 413.558594 380.804688 413.222656 C 380.066406 412.976563 379.402344 412.503906 378.964844 411.855469 C 378.433594 411.078125 378.238281 410.121094 378.214844 409.191406 C 378.183594 408.210938 378.320313 407.1875 378.820313 406.320313 C 379.28125 405.507813 380.0625 404.894531 380.957031 404.621094 Z M 381.152344 406.582031 C 380.761719 406.960938 380.609375 407.507813 380.566406 408.035156 C 381.714844 408.035156 382.867188 408.035156 384.019531 408.035156 C 384.027344 407.554688 384.015625 407.03125 383.730469 406.621094 C 383.503906 406.292969 383.105469 406.132813 382.71875 406.105469 C 382.164063 406.058594 381.558594 406.175781 381.152344 406.582031 "/>
<path style=" stroke:none;fill-rule:evenodd;fill:rgb(11.767578%,11.767578%,11.767578%);fill-opacity:1;" d="M 390.996094 404.421875 C 391.949219 404.335938 392.953125 404.421875 393.824219 404.851563 C 394.609375 405.234375 395.238281 405.914063 395.585938 406.71875 C 395.972656 407.605469 396.046875 408.597656 395.976563 409.554688 C 395.902344 410.511719 395.589844 411.480469 394.9375 412.207031 C 394.332031 412.902344 393.453125 413.320313 392.546875 413.453125 C 391.625 413.582031 390.65625 413.539063 389.777344 413.210938 C 388.953125 412.902344 388.246094 412.289063 387.828125 411.515625 C 387.371094 410.683594 387.238281 409.710938 387.257813 408.773438 C 387.277344 407.878906 387.460938 406.964844 387.941406 406.199219 C 388.367188 405.523438 389.011719 404.988281 389.761719 404.707031 C 390.15625 404.554688 390.574219 404.464844 390.996094 404.421875 Z M 391.21875 406.320313 C 390.75 406.402344 390.347656 406.730469 390.144531 407.15625 C 389.894531 407.65625 389.832031 408.222656 389.816406 408.773438 C 389.804688 409.34375 389.839844 409.921875 390.023438 410.460938 C 390.148438 410.828125 390.371094 411.179688 390.707031 411.390625 C 391.109375 411.640625 391.617188 411.675781 392.074219 411.582031 C 392.464844 411.5 392.8125 411.25 393.019531 410.910156 C 393.316406 410.425781 393.402344 409.851563 393.433594 409.292969 C 393.457031 408.703125 393.433594 408.097656 393.261719 407.53125 C 393.140625 407.148438 392.929688 406.773438 392.589844 406.546875 C 392.191406 406.277344 391.679688 406.238281 391.21875 406.320313 "/>
<path style=" stroke:none;fill-rule:evenodd;fill:rgb(11.767578%,11.767578%,11.767578%);fill-opacity:1;" d="M 320.746094 404.949219 C 321.203125 404.671875 321.746094 404.53125 322.28125 404.550781 C 322.441406 404.558594 322.628906 404.546875 322.753906 404.667969 C 322.859375 404.757813 322.890625 404.898438 322.886719 405.035156 C 322.882813 405.535156 322.890625 406.035156 322.886719 406.535156 C 322.890625 406.734375 322.679688 406.875 322.496094 406.828125 C 321.570313 406.703125 320.613281 406.824219 319.742188 407.171875 C 319.742188 409.039063 319.746094 410.910156 319.742188 412.777344 C 319.753906 413.035156 319.53125 413.269531 319.277344 413.273438 C 318.753906 413.277344 318.230469 413.277344 317.707031 413.273438 C 317.449219 413.269531 317.226563 413.035156 317.238281 412.777344 C 317.238281 410.230469 317.238281 407.6875 317.238281 405.140625 C 317.226563 404.878906 317.445313 404.636719 317.710938 404.636719 C 318.074219 404.628906 318.441406 404.632813 318.8125 404.632813 C 319.097656 404.636719 319.355469 404.855469 319.417969 405.132813 C 319.484375 405.394531 319.542969 405.65625 319.609375 405.917969 C 319.953125 405.558594 320.3125 405.203125 320.746094 404.949219 "/>
<path style=" stroke:none;fill-rule:evenodd;fill:rgb(11.767578%,11.767578%,11.767578%);fill-opacity:1;" d="M 324.4375 404.648438 C 324.75 404.570313 325.082031 404.628906 325.402344 404.613281 C 325.679688 404.617188 325.960938 404.597656 326.238281 404.621094 C 326.480469 404.65625 326.660156 404.894531 326.644531 405.136719 C 326.644531 407.632813 326.644531 410.128906 326.644531 412.621094 C 326.652344 412.804688 326.644531 413.007813 326.5 413.140625 C 326.378906 413.269531 326.191406 413.296875 326.027344 413.289063 C 325.558594 413.28125 325.089844 413.292969 324.621094 413.285156 C 324.355469 413.289063 324.121094 413.042969 324.136719 412.777344 C 324.132813 410.230469 324.136719 407.683594 324.136719 405.136719 C 324.125 404.929688 324.246094 404.726563 324.4375 404.648438 "/>
<path style=" stroke:none;fill-rule:evenodd;fill:rgb(11.767578%,11.767578%,11.767578%);fill-opacity:1;" d="M 354.519531 405.070313 C 354.421875 404.882813 354.539063 404.625 354.761719 404.617188 C 355.335938 404.601563 355.90625 404.617188 356.480469 404.613281 C 356.792969 404.589844 357.097656 404.804688 357.183594 405.105469 C 357.769531 407.089844 358.351563 409.074219 358.9375 411.058594 C 359.503906 409.171875 360.070313 407.285156 360.632813 405.398438 C 360.691406 405.210938 360.726563 405.003906 360.863281 404.851563 C 361 404.691406 361.210938 404.605469 361.417969 404.613281 C 361.921875 404.609375 362.421875 404.613281 362.925781 404.609375 C 363.050781 404.609375 363.195313 404.617188 363.285156 404.722656 C 363.382813 404.832031 363.355469 404.988281 363.304688 405.113281 C 362.3125 407.671875 361.324219 410.230469 360.332031 412.785156 C 360.226563 413.066406 359.945313 413.273438 359.648438 413.285156 C 359.265625 413.292969 358.886719 413.28125 358.503906 413.285156 C 358.316406 413.285156 358.125 413.304688 357.949219 413.226563 C 357.734375 413.140625 357.574219 412.953125 357.503906 412.738281 C 356.511719 410.183594 355.511719 407.628906 354.519531 405.070313 "/>
<path style=" stroke:none;fill-rule:evenodd;fill:rgb(11.767578%,11.767578%,11.767578%);fill-opacity:1;" d="M 364.644531 404.632813 C 364.796875 404.597656 364.949219 404.613281 365.105469 404.613281 C 365.519531 404.617188 365.941406 404.605469 366.359375 404.617188 C 366.621094 404.628906 366.828125 404.878906 366.808594 405.140625 C 366.808594 407.6875 366.808594 410.234375 366.808594 412.78125 C 366.816406 413.035156 366.597656 413.273438 366.34375 413.28125 C 365.84375 413.292969 365.34375 413.285156 364.84375 413.285156 C 364.671875 413.292969 364.488281 413.222656 364.390625 413.078125 C 364.28125 412.933594 364.296875 412.742188 364.296875 412.570313 C 364.300781 410.089844 364.296875 407.613281 364.300781 405.132813 C 364.285156 404.914063 364.433594 404.695313 364.644531 404.632813 "/>
<path style=" stroke:none;fill-rule:evenodd;fill:rgb(50.584412%,66.992188%,24.705505%);fill-opacity:1;" d="M 316.917969 375.121094 C 323.179688 375.121094 328.257813 380.152344 328.257813 386.355469 C 328.257813 392.558594 323.179688 397.589844 316.917969 397.589844 C 310.65625 397.589844 305.578125 392.558594 305.578125 386.355469 C 305.578125 380.152344 310.65625 375.121094 316.917969 375.121094 "/>
<path style=" stroke:none;fill-rule:evenodd;fill:rgb(100%,100%,100%);fill-opacity:1;" d="M 313.878906 381.761719 L 322.445313 385.703125 C 322.777344 385.863281 323.054688 385.992188 323.054688 386.394531 C 323.054688 386.800781 322.742188 386.945313 322.445313 387.085938 L 313.878906 391.027344 C 313.578125 391.027344 313.285156 390.90625 313.285156 390.523438 L 313.285156 382.265625 C 313.285156 381.882813 313.578125 381.761719 313.878906 381.761719 "/>
</g>
</svg>
